<svg xmlns="http://www.w3.org/2000/svg" width="32" height="32" viewBox="0 0 32 32" fill="none">
  <rect width="32" height="32" rx="8" fill="#5865F2"/>
  <path d="M22.2 11.2c-1.2-.6-2.5-1-3.8-1.2-.2.3-.4.7-.5 1-1.4-.2-2.8-.2-4.2 0-.1-.3-.3-.7-.5-1-1.3.2-2.6.6-3.8 1.2C7.1 14.8 6.4 18.3 6.8 21.7c1.6 1.2 3.1 1.9 4.6 2.3.4-.5.7-1 1-1.6-.5-.2-1-.4-1.5-.7.1-.1.3-.2.4-.3 3 1.4 6.4 1.4 9.4 0 .1.1.3.2.4.3-.5.3-1 .5-1.5.7.3.6.6 1.1 1 1.6 1.5-.4 3-1.1 4.6-2.3.4-4-0.7-7.4-2.9-10.5zM13.1 19.5c-.9 0-1.6-.8-1.6-1.8s.7-1.8 1.6-1.8c.9 0 1.7.8 1.6 1.8 0 1-.7 1.8-1.6 1.8zm5.8 0c-.9 0-1.6-.8-1.6-1.8s.7-1.8 1.6-1.8c.9 0 1.7.8 1.6 1.8 0 1-.7 1.8-1.6 1.8z" fill="white"/>
</svg>
